<svg width="102" height="102" viewBox="0 0 102 102" fill="none" xmlns="http://www.w3.org/2000/svg">
<g clip-path="url(#clip0_1_1943)">
<path d="M51 102C79.1665 102 102 79.1665 102 51C102 22.8335 79.1665 0 51 0C22.8335 0 0 22.8335 0 51C0 79.1665 22.8335 102 51 102Z" fill="black"/>
<mask id="mask0_1_1943" style="mask-type:alpha" maskUnits="userSpaceOnUse" x="0" y="0" width="102" height="102">
<path d="M51 102C79.1665 102 102 79.1665 102 51C102 22.8335 79.1665 0 51 0C22.8335 0 0 22.8335 0 51C0 79.1665 22.8335 102 51 102Z" fill="black"/>
</mask>
<g mask="url(#mask0_1_1943)">
<g filter="url(#filter0_f_1_1943)">
<path d="M51 98.7545C77.3741 98.7545 98.7546 77.3741 98.7546 51C98.7546 24.6259 77.3741 3.24545 51 3.24545C24.6259 3.24545 3.24548 24.6259 3.24548 51C3.24548 77.3741 24.6259 98.7545 51 98.7545Z" stroke="white" stroke-opacity="0.21" stroke-width="0.923636"/>
</g>
<g filter="url(#filter1_f_1_1943)">
<path d="M51 95.0455C75.3257 95.0455 95.0455 75.3256 95.0455 51C95.0455 26.6744 75.3257 6.95454 51 6.95454C26.6744 6.95454 6.95459 26.6744 6.95459 51C6.95459 75.3256 26.6744 95.0455 51 95.0455Z" stroke="white" stroke-opacity="0.21" stroke-width="0.923636"/>
</g>
<g filter="url(#filter2_f_1_1943)">
<path d="M51 93.1909C74.3014 93.1909 93.1909 74.3014 93.1909 51C93.1909 27.6986 74.3014 8.80908 51 8.80908C27.6986 8.80908 8.80908 27.6986 8.80908 51C8.80908 74.3014 27.6986 93.1909 51 93.1909Z" stroke="white" stroke-opacity="0.21" stroke-width="0.923636"/>
</g>
<g filter="url(#filter3_f_1_1943)">
<path d="M51.0001 91.3364C73.2772 91.3364 91.3364 73.2772 91.3364 51C91.3364 28.7228 73.2772 10.6636 51.0001 10.6636C28.7229 10.6636 10.6637 28.7228 10.6637 51C10.6637 73.2772 28.7229 91.3364 51.0001 91.3364Z" stroke="white" stroke-opacity="0.21" stroke-width="0.923636"/>
</g>
<g filter="url(#filter4_f_1_1943)">
<path d="M51 85.7727C70.2045 85.7727 85.7728 70.2044 85.7728 51C85.7728 31.7955 70.2045 16.2273 51 16.2273C31.7956 16.2273 16.2273 31.7955 16.2273 51C16.2273 70.2044 31.7956 85.7727 51 85.7727Z" stroke="white" stroke-opacity="0.21" stroke-width="0.923636"/>
</g>
<g filter="url(#filter5_f_1_1943)">
<path d="M51.0001 82.9909C68.6682 82.9909 82.991 68.6681 82.991 51C82.991 33.3319 68.6682 19.0091 51.0001 19.0091C33.332 19.0091 19.0092 33.3319 19.0092 51C19.0092 68.6681 33.332 82.9909 51.0001 82.9909Z" stroke="white" stroke-opacity="0.21" stroke-width="0.923636"/>
</g>
<g opacity="0.4" filter="url(#filter6_f_1_1943)">
<path d="M-12.9818 35.2364L50.0727 53.3914L-12.9818 68.6182V35.2364Z" fill="white"/>
</g>
<g opacity="0.4" filter="url(#filter7_f_1_1943)">
<path d="M114.055 35.2364L51 53.3914L114.055 68.6182V35.2364Z" fill="white"/>
</g>
<g opacity="0.4" filter="url(#filter8_f_1_1943)">
<path d="M33.8455 115.445L52.0005 52.3909L67.2273 115.445H33.8455Z" fill="white"/>
</g>
<g opacity="0.4" filter="url(#filter9_f_1_1943)">
<path d="M33.8455 -11.5909L52.0005 51.4636L67.2273 -11.5909H33.8455Z" fill="white"/>
</g>
</g>
</g>
<defs>
<filter id="filter0_f_1_1943" x="0.936419" y="0.936358" width="100.127" height="100.127" filterUnits="userSpaceOnUse" color-interpolation-filters="sRGB">
<feFlood flood-opacity="0" result="BackgroundImageFix"/>
<feBlend mode="normal" in="SourceGraphic" in2="BackgroundImageFix" result="shape"/>
<feGaussianBlur stdDeviation="0.923636" result="effect1_foregroundBlur_1_1943"/>
</filter>
<filter id="filter1_f_1_1943" x="4.64553" y="4.64545" width="92.7091" height="92.7091" filterUnits="userSpaceOnUse" color-interpolation-filters="sRGB">
<feFlood flood-opacity="0" result="BackgroundImageFix"/>
<feBlend mode="normal" in="SourceGraphic" in2="BackgroundImageFix" result="shape"/>
<feGaussianBlur stdDeviation="0.923636" result="effect1_foregroundBlur_1_1943"/>
</filter>
<filter id="filter2_f_1_1943" x="6.50002" y="6.49999" width="89" height="89" filterUnits="userSpaceOnUse" color-interpolation-filters="sRGB">
<feFlood flood-opacity="0" result="BackgroundImageFix"/>
<feBlend mode="normal" in="SourceGraphic" in2="BackgroundImageFix" result="shape"/>
<feGaussianBlur stdDeviation="0.923636" result="effect1_foregroundBlur_1_1943"/>
</filter>
<filter id="filter3_f_1_1943" x="8.35463" y="8.35454" width="85.2909" height="85.2909" filterUnits="userSpaceOnUse" color-interpolation-filters="sRGB">
<feFlood flood-opacity="0" result="BackgroundImageFix"/>
<feBlend mode="normal" in="SourceGraphic" in2="BackgroundImageFix" result="shape"/>
<feGaussianBlur stdDeviation="0.923636" result="effect1_foregroundBlur_1_1943"/>
</filter>
<filter id="filter4_f_1_1943" x="13.9182" y="13.9182" width="74.1637" height="74.1636" filterUnits="userSpaceOnUse" color-interpolation-filters="sRGB">
<feFlood flood-opacity="0" result="BackgroundImageFix"/>
<feBlend mode="normal" in="SourceGraphic" in2="BackgroundImageFix" result="shape"/>
<feGaussianBlur stdDeviation="0.923636" result="effect1_foregroundBlur_1_1943"/>
</filter>
<filter id="filter5_f_1_1943" x="16.7001" y="16.7" width="68.5999" height="68.6" filterUnits="userSpaceOnUse" color-interpolation-filters="sRGB">
<feFlood flood-opacity="0" result="BackgroundImageFix"/>
<feBlend mode="normal" in="SourceGraphic" in2="BackgroundImageFix" result="shape"/>
<feGaussianBlur stdDeviation="0.923636" result="effect1_foregroundBlur_1_1943"/>
</filter>
<filter id="filter6_f_1_1943" x="-27.76" y="20.4582" width="92.6109" height="62.9382" filterUnits="userSpaceOnUse" color-interpolation-filters="sRGB">
<feFlood flood-opacity="0" result="BackgroundImageFix"/>
<feBlend mode="normal" in="SourceGraphic" in2="BackgroundImageFix" result="shape"/>
<feGaussianBlur stdDeviation="7.38909" result="effect1_foregroundBlur_1_1943"/>
</filter>
<filter id="filter7_f_1_1943" x="36.2218" y="20.4582" width="92.6109" height="62.9382" filterUnits="userSpaceOnUse" color-interpolation-filters="sRGB">
<feFlood flood-opacity="0" result="BackgroundImageFix"/>
<feBlend mode="normal" in="SourceGraphic" in2="BackgroundImageFix" result="shape"/>
<feGaussianBlur stdDeviation="7.38909" result="effect1_foregroundBlur_1_1943"/>
</filter>
<filter id="filter8_f_1_1943" x="19.0673" y="37.6127" width="62.9382" height="92.6109" filterUnits="userSpaceOnUse" color-interpolation-filters="sRGB">
<feFlood flood-opacity="0" result="BackgroundImageFix"/>
<feBlend mode="normal" in="SourceGraphic" in2="BackgroundImageFix" result="shape"/>
<feGaussianBlur stdDeviation="7.38909" result="effect1_foregroundBlur_1_1943"/>
</filter>
<filter id="filter9_f_1_1943" x="19.0673" y="-26.3691" width="62.9382" height="92.6109" filterUnits="userSpaceOnUse" color-interpolation-filters="sRGB">
<feFlood flood-opacity="0" result="BackgroundImageFix"/>
<feBlend mode="normal" in="SourceGraphic" in2="BackgroundImageFix" result="shape"/>
<feGaussianBlur stdDeviation="7.38909" result="effect1_foregroundBlur_1_1943"/>
</filter>
<clipPath id="clip0_1_1943">
<rect width="102" height="102" fill="white"/>
</clipPath>
</defs>
</svg>
