<svg width="28" height="28" viewBox="0 0 28 28" fill="none" xmlns="http://www.w3.org/2000/svg">
<g clip-path="url(#clip0_1_1838)">
<path d="M21 0H7C3.13401 0 0 3.13401 0 7V21C0 24.866 3.13401 28 7 28H21C24.866 28 28 24.866 28 21V7C28 3.13401 24.866 0 21 0Z" fill="black"/>
<path d="M21 0.349998H6.99998C3.32728 0.349998 0.349976 3.32731 0.349976 7V21C0.349976 24.6727 3.32728 27.65 6.99998 27.65H21C24.6727 27.65 27.65 24.6727 27.65 21V7C27.65 3.32731 24.6727 0.349998 21 0.349998Z" stroke="black" stroke-opacity="0.08" stroke-width="0.4"/>
<mask id="mask0_1_1838" style="mask-type:alpha" maskUnits="userSpaceOnUse" x="0" y="0" width="28" height="28">
<path d="M21 0H7C3.13401 0 0 3.13401 0 7V21C0 24.866 3.13401 28 7 28H21C24.866 28 28 24.866 28 21V7C28 3.13401 24.866 0 21 0Z" fill="black"/>
<path d="M21 0.349998H6.99998C3.32728 0.349998 0.349976 3.32731 0.349976 7V21C0.349976 24.6727 3.32728 27.65 6.99998 27.65H21C24.6727 27.65 27.65 24.6727 27.65 21V7C27.65 3.32731 24.6727 0.349998 21 0.349998Z" stroke="black" stroke-opacity="0.08" stroke-width="0.4"/>
</mask>
<g mask="url(#mask0_1_1838)">
<path d="M14.0046 0C8.15976 0 6.45033 0.00602966 6.11805 0.0335938C4.91858 0.133299 4.17219 0.322156 3.35905 0.727006C2.73239 1.03818 2.23818 1.39888 1.75042 1.90451C0.86212 2.82662 0.323759 3.96106 0.128872 5.30955C0.0341202 5.9642 0.00655606 6.09771 0.00095709 9.4416C-0.00119636 10.5562 0.00095709 12.0231 0.00095709 13.9908C0.00095709 19.8309 0.00741741 21.5386 0.0354123 21.8702C0.132318 23.0374 0.315361 23.7717 0.702982 24.575C1.44377 26.1125 2.85858 27.2667 4.52535 27.6975C5.10248 27.8461 5.7399 27.9279 6.55822 27.9667C6.90492 27.9817 10.4388 27.9925 13.9747 27.9925C17.5106 27.9925 21.0466 27.9882 21.3847 27.9709C22.3322 27.9264 22.8824 27.8525 23.4908 27.6953C24.3172 27.4834 25.0874 27.0936 25.7477 26.5531C26.4079 26.0127 26.9422 25.3347 27.3132 24.5664C27.6933 23.7825 27.886 23.0202 27.9732 21.9139C27.9922 21.6728 28.0001 17.8273 28.0001 13.9871C28.0001 10.1462 27.9915 6.30789 27.9726 6.0667C27.8843 4.9426 27.6915 4.18673 27.2992 3.38781C26.9772 2.73381 26.6197 2.2454 26.1008 1.74602C25.1748 0.861378 24.0421 0.323018 22.6921 0.128346C22.0381 0.0338092 21.9078 0.00581432 18.5613 0H14.0046Z" fill="url(#paint0_radial_1_1838)"/>
<path d="M14.0046 0C8.15976 0 6.45033 0.00602966 6.11805 0.0335938C4.91858 0.133299 4.17219 0.322156 3.35905 0.727006C2.73239 1.03818 2.23818 1.39888 1.75042 1.90451C0.86212 2.82662 0.323759 3.96106 0.128872 5.30955C0.0341202 5.9642 0.00655606 6.09771 0.00095709 9.4416C-0.00119636 10.5562 0.00095709 12.0231 0.00095709 13.9908C0.00095709 19.8309 0.00741741 21.5386 0.0354123 21.8702C0.132318 23.0374 0.315361 23.7717 0.702982 24.575C1.44377 26.1125 2.85858 27.2667 4.52535 27.6975C5.10248 27.8461 5.7399 27.9279 6.55822 27.9667C6.90492 27.9817 10.4388 27.9925 13.9747 27.9925C17.5106 27.9925 21.0466 27.9882 21.3847 27.9709C22.3322 27.9264 22.8824 27.8525 23.4908 27.6953C24.3172 27.4834 25.0874 27.0936 25.7477 26.5531C26.4079 26.0127 26.9422 25.3347 27.3132 24.5664C27.6933 23.7825 27.886 23.0202 27.9732 21.9139C27.9922 21.6728 28.0001 17.8273 28.0001 13.9871C28.0001 10.1462 27.9915 6.30789 27.9726 6.0667C27.8843 4.9426 27.6915 4.18673 27.2992 3.38781C26.9772 2.73381 26.6197 2.2454 26.1008 1.74602C25.1748 0.861378 24.0421 0.323018 22.6921 0.128346C22.0381 0.0338092 21.9078 0.00581432 18.5613 0H14.0046Z" fill="url(#paint1_radial_1_1838)"/>
</g>
<path d="M14.0006 5.6C11.7192 5.6 11.4329 5.60997 10.5369 5.65075C9.64269 5.6917 9.03229 5.83327 8.49819 6.041C7.94568 6.25555 7.47703 6.54255 7.01013 7.00966C6.54288 7.47656 6.25588 7.94514 6.04063 8.49744C5.83238 9.03175 5.69063 9.64236 5.65038 10.5363C5.61048 11.4322 5.59998 11.7187 5.59998 14C5.59998 16.2813 5.61013 16.5668 5.65073 17.4628C5.69185 18.357 5.83343 18.9673 6.04098 19.5014C6.25571 20.0539 6.54271 20.5226 7.00978 20.9895C7.47654 21.4567 7.94519 21.7445 8.49728 21.959C9.0318 22.1667 9.64234 22.3083 10.5364 22.3492C11.4324 22.3901 11.7185 22.4 13.9997 22.4C16.2812 22.4 16.5667 22.3901 17.4627 22.3492C18.3569 22.3083 18.968 22.1667 19.5025 21.959C20.0548 21.7445 20.5227 21.4567 20.9895 20.9895C21.4567 20.5226 21.7437 20.054 21.959 19.5017C22.1655 18.9674 22.3072 18.3568 22.3492 17.4629C22.3895 16.5669 22.4 16.2813 22.4 14C22.4 11.7187 22.3895 11.4324 22.3492 10.5364C22.3072 9.64215 22.1655 9.03175 21.959 8.49765C21.7437 7.94514 21.4567 7.47656 20.9895 7.00966C20.5222 6.54237 20.055 6.25537 19.502 6.041C18.9664 5.83327 18.3557 5.6917 17.4614 5.65075C16.5654 5.60997 16.2802 5.6 13.9982 5.6H14.0006ZM13.2471 7.11375C13.4707 7.1134 13.7203 7.11375 14.0006 7.11375C16.2434 7.11375 16.5093 7.1218 17.3949 7.16205C18.2139 7.1995 18.6584 7.33635 18.9545 7.45136C19.3466 7.60361 19.626 7.78561 19.9199 8.07961C20.2139 8.37361 20.3959 8.65354 20.5485 9.04554C20.6634 9.34129 20.8005 9.78579 20.8377 10.6048C20.878 11.4904 20.8867 11.7563 20.8867 13.998C20.8867 16.2398 20.878 16.5058 20.8377 17.3913C20.8003 18.2103 20.6634 18.6548 20.5485 18.9506C20.3962 19.3425 20.2139 19.6217 19.9199 19.9156C19.6259 20.2096 19.3467 20.3915 18.9545 20.5437C18.6588 20.6593 18.2139 20.7958 17.3949 20.8332C16.5094 20.8735 16.2434 20.8823 14.0006 20.8823C11.7576 20.8823 11.4917 20.8735 10.6062 20.8332C9.78724 20.7954 9.34274 20.6585 9.0465 20.5436C8.65443 20.3913 8.37443 20.2093 8.08043 19.9153C7.78643 19.6213 7.60443 19.342 7.45183 18.9499C7.33689 18.6542 7.19983 18.2097 7.16259 17.3907C7.12234 16.5051 7.11429 16.2391 7.11429 13.9959C7.11429 11.7528 7.12234 11.4883 7.16259 10.6028C7.20004 9.78376 7.33689 9.33919 7.45183 9.04309C7.60408 8.65109 7.78643 8.37116 8.08043 8.07716C8.37443 7.78316 8.65443 7.60109 9.0465 7.44849C9.3426 7.33299 9.78724 7.19656 10.6062 7.1589C11.3811 7.1239 11.6814 7.1134 13.2471 7.11165V7.11375ZM18.4845 8.5085C18.2851 8.5085 18.0902 8.56765 17.9245 8.67839C17.7586 8.7892 17.6295 8.94663 17.5532 9.13087C17.4769 9.31504 17.4569 9.51776 17.4958 9.71327C17.5348 9.90885 17.6308 10.0884 17.7719 10.2294C17.9128 10.3704 18.0925 10.4663 18.288 10.5052C18.4836 10.544 18.6863 10.524 18.8705 10.4476C19.0547 10.3713 19.212 10.242 19.3228 10.0763C19.4335 9.91046 19.4926 9.71551 19.4925 9.51615C19.4925 8.95965 19.041 8.5085 18.4845 8.5085ZM14.0006 9.68625C11.6183 9.68625 9.68679 11.6178 9.68679 14C9.68679 16.3822 11.6183 18.3128 14.0006 18.3128C16.3829 18.3128 18.3139 16.3822 18.3139 14C18.3139 11.6178 16.3829 9.68625 14.0006 9.68625ZM14.0006 11.2C15.5469 11.2 16.8006 12.4536 16.8006 14C16.8006 15.5463 15.5469 16.8 14.0006 16.8C12.4541 16.8 11.2005 15.5463 11.2005 14C11.2005 12.4536 12.4541 11.2 14.0006 11.2Z" fill="white"/>
</g>
<defs>
<radialGradient id="paint0_radial_1_1838" cx="0" cy="0" r="1" gradientUnits="userSpaceOnUse" gradientTransform="translate(7.43757 30.1485) rotate(-90) scale(27.7426 25.8098)">
<stop stop-color="#FFDD55"/>
<stop offset="0.1" stop-color="#FFDD55"/>
<stop offset="0.5" stop-color="#FF543E"/>
<stop offset="1" stop-color="#C837AB"/>
</radialGradient>
<radialGradient id="paint1_radial_1_1838" cx="0" cy="0" r="1" gradientUnits="userSpaceOnUse" gradientTransform="translate(-4.69017 2.01653) rotate(78.6776) scale(12.4012 51.1312)">
<stop stop-color="#3771C8"/>
<stop offset="0.128" stop-color="#3771C8"/>
<stop offset="1" stop-color="#6600FF" stop-opacity="0"/>
</radialGradient>
<clipPath id="clip0_1_1838">
<rect width="28" height="28" fill="white"/>
</clipPath>
</defs>
</svg>
