<svg width="28" height="28" viewBox="0 0 28 28" fill="none" xmlns="http://www.w3.org/2000/svg">
<g clip-path="url(#clip0_1_1863)">
<path d="M21 0H7C3.13401 0 0 3.13401 0 7V21C0 24.866 3.13401 28 7 28H21C24.866 28 28 24.866 28 21V7C28 3.13401 24.866 0 21 0Z" fill="#006699"/>
<path fill-rule="evenodd" clip-rule="evenodd" d="M10.3141 20.3V10.8537H7.17429V20.3H10.3141ZM8.74418 9.56403C9.83905 9.56403 10.5206 8.83862 10.5206 7.93212C10.5001 7.00525 9.83905 6.3 8.76497 6.3C7.69096 6.3 6.98871 7.00525 6.98871 7.93212C6.98871 8.83862 7.67003 9.56403 8.72374 9.56403H8.74418Z" fill="white"/>
<path fill-rule="evenodd" clip-rule="evenodd" d="M12.0514 20.3H15.1911V15.0248C15.1911 14.7425 15.2115 14.4605 15.2944 14.2587C15.5214 13.6945 16.038 13.1104 16.9054 13.1104C18.0415 13.1104 18.496 13.9766 18.496 15.2465V20.3H21.6354V14.8837C21.6354 11.9822 20.0865 10.6321 18.0208 10.6321C16.327 10.6321 15.5834 11.5788 15.1702 12.2237H15.1912V10.8537H12.0515C12.0927 11.7401 12.0514 20.3 12.0514 20.3Z" fill="white"/>
</g>
<defs>
<clipPath id="clip0_1_1863">
<rect width="28" height="28" fill="white"/>
</clipPath>
</defs>
</svg>
