<svg width="127" height="159" viewBox="0 0 127 159" fill="none" xmlns="http://www.w3.org/2000/svg">
<g clip-path="url(#clip0_1_1730)">
<path d="M9.14015 0H2.4053C1.07689 0 0 1.34823 0 3.01136V11.4432C0 13.1063 1.07689 14.4545 2.4053 14.4545H9.14015C10.4686 14.4545 11.5455 13.1063 11.5455 11.4432V3.01136C11.5455 1.34823 10.4686 0 9.14015 0Z" fill="#EBEDF0"/>
<path d="M9.14017 0.60228H2.40532C1.34259 0.60228 0.481079 1.68087 0.481079 3.01137V11.4432C0.481079 12.7737 1.34259 13.8523 2.40532 13.8523H9.14017C10.2029 13.8523 11.0644 12.7737 11.0644 11.4432V3.01137C11.0644 1.68087 10.2029 0.60228 9.14017 0.60228Z" stroke="black" stroke-opacity="0.04"/>
<path d="M9.14015 24.0909H2.4053C1.07689 24.0909 0 25.4391 0 27.1023V35.5341C0 37.1972 1.07689 38.5455 2.4053 38.5455H9.14015C10.4686 38.5455 11.5455 37.1972 11.5455 35.5341V27.1023C11.5455 25.4391 10.4686 24.0909 9.14015 24.0909Z" fill="#9BE9A8"/>
<path d="M9.14017 24.6932H2.40532C1.34259 24.6932 0.481079 25.7718 0.481079 27.1023V35.5341C0.481079 36.8646 1.34259 37.9432 2.40532 37.9432H9.14017C10.2029 37.9432 11.0644 36.8646 11.0644 35.5341V27.1023C11.0644 25.7718 10.2029 24.6932 9.14017 24.6932Z" stroke="black" stroke-opacity="0.04"/>
<path d="M9.14015 48.1818H2.4053C1.07689 48.1818 0 49.5301 0 51.1932V59.625C0 61.2881 1.07689 62.6364 2.4053 62.6364H9.14015C10.4686 62.6364 11.5455 61.2881 11.5455 59.625V51.1932C11.5455 49.5301 10.4686 48.1818 9.14015 48.1818Z" fill="#EBEDF0"/>
<path d="M9.14017 48.7841H2.40532C1.34259 48.7841 0.481079 49.8627 0.481079 51.1932V59.625C0.481079 60.9555 1.34259 62.0341 2.40532 62.0341H9.14017C10.2029 62.0341 11.0644 60.9555 11.0644 59.625V51.1932C11.0644 49.8627 10.2029 48.7841 9.14017 48.7841Z" stroke="black" stroke-opacity="0.04"/>
<path d="M9.14015 72.2727H2.4053C1.07689 72.2727 0 73.621 0 75.2841V83.7159C0 85.379 1.07689 86.7273 2.4053 86.7273H9.14015C10.4686 86.7273 11.5455 85.379 11.5455 83.7159V75.2841C11.5455 73.621 10.4686 72.2727 9.14015 72.2727Z" fill="#EBEDF0"/>
<path d="M9.14017 72.875H2.40532C1.34259 72.875 0.481079 73.9536 0.481079 75.2841V83.7159C0.481079 85.0464 1.34259 86.125 2.40532 86.125H9.14017C10.2029 86.125 11.0644 85.0464 11.0644 83.7159V75.2841C11.0644 73.9536 10.2029 72.875 9.14017 72.875Z" stroke="black" stroke-opacity="0.04"/>
<path d="M9.14015 96.3636H2.4053C1.07689 96.3636 0 97.7119 0 99.375V107.807C0 109.47 1.07689 110.818 2.4053 110.818H9.14015C10.4686 110.818 11.5455 109.47 11.5455 107.807V99.375C11.5455 97.7119 10.4686 96.3636 9.14015 96.3636Z" fill="#EBEDF0"/>
<path d="M9.14017 96.9659H2.40532C1.34259 96.9659 0.481079 98.0445 0.481079 99.375V107.807C0.481079 109.137 1.34259 110.216 2.40532 110.216H9.14017C10.2029 110.216 11.0644 109.137 11.0644 107.807V99.375C11.0644 98.0445 10.2029 96.9659 9.14017 96.9659Z" stroke="black" stroke-opacity="0.04"/>
<path d="M9.14015 120.455H2.4053C1.07689 120.455 0 121.803 0 123.466V131.898C0 133.561 1.07689 134.909 2.4053 134.909H9.14015C10.4686 134.909 11.5455 133.561 11.5455 131.898V123.466C11.5455 121.803 10.4686 120.455 9.14015 120.455Z" fill="#EBEDF0"/>
<path d="M9.14017 121.057H2.40532C1.34259 121.057 0.481079 122.135 0.481079 123.466V131.898C0.481079 133.228 1.34259 134.307 2.40532 134.307H9.14017C10.2029 134.307 11.0644 133.228 11.0644 131.898V123.466C11.0644 122.135 10.2029 121.057 9.14017 121.057Z" stroke="black" stroke-opacity="0.04"/>
<path d="M9.14015 144.545H2.4053C1.07689 144.545 0 145.894 0 147.557V155.989C0 157.652 1.07689 159 2.4053 159H9.14015C10.4686 159 11.5455 157.652 11.5455 155.989V147.557C11.5455 145.894 10.4686 144.545 9.14015 144.545Z" fill="#EBEDF0"/>
<path d="M9.14017 145.148H2.40532C1.34259 145.148 0.481079 146.226 0.481079 147.557V155.989C0.481079 157.319 1.34259 158.398 2.40532 158.398H9.14017C10.2029 158.398 11.0644 157.319 11.0644 155.989V147.557C11.0644 146.226 10.2029 145.148 9.14017 145.148Z" stroke="black" stroke-opacity="0.04"/>
<path d="M28.3826 0H21.6477C20.3193 0 19.2424 1.34823 19.2424 3.01136V11.4432C19.2424 13.1063 20.3193 14.4545 21.6477 14.4545H28.3826C29.711 14.4545 30.7879 13.1063 30.7879 11.4432V3.01136C30.7879 1.34823 29.711 0 28.3826 0Z" fill="#EBEDF0"/>
<path d="M28.3826 0.60228H21.6478C20.585 0.60228 19.7235 1.68087 19.7235 3.01137V11.4432C19.7235 12.7737 20.585 13.8523 21.6478 13.8523H28.3826C29.4453 13.8523 30.3068 12.7737 30.3068 11.4432V3.01137C30.3068 1.68087 29.4453 0.60228 28.3826 0.60228Z" stroke="black" stroke-opacity="0.04"/>
<path d="M28.3826 24.0909H21.6477C20.3193 24.0909 19.2424 25.4391 19.2424 27.1023V35.5341C19.2424 37.1972 20.3193 38.5455 21.6477 38.5455H28.3826C29.711 38.5455 30.7879 37.1972 30.7879 35.5341V27.1023C30.7879 25.4391 29.711 24.0909 28.3826 24.0909Z" fill="#EBEDF0"/>
<path d="M28.3826 24.6932H21.6478C20.585 24.6932 19.7235 25.7718 19.7235 27.1023V35.5341C19.7235 36.8646 20.585 37.9432 21.6478 37.9432H28.3826C29.4453 37.9432 30.3068 36.8646 30.3068 35.5341V27.1023C30.3068 25.7718 29.4453 24.6932 28.3826 24.6932Z" stroke="black" stroke-opacity="0.04"/>
<path d="M28.3826 48.1818H21.6477C20.3193 48.1818 19.2424 49.5301 19.2424 51.1932V59.625C19.2424 61.2881 20.3193 62.6364 21.6477 62.6364H28.3826C29.711 62.6364 30.7879 61.2881 30.7879 59.625V51.1932C30.7879 49.5301 29.711 48.1818 28.3826 48.1818Z" fill="#9BE9A8"/>
<path d="M28.3826 48.7841H21.6478C20.585 48.7841 19.7235 49.8627 19.7235 51.1932V59.625C19.7235 60.9555 20.585 62.0341 21.6478 62.0341H28.3826C29.4453 62.0341 30.3068 60.9555 30.3068 59.625V51.1932C30.3068 49.8627 29.4453 48.7841 28.3826 48.7841Z" stroke="black" stroke-opacity="0.04"/>
<path d="M28.3826 72.2727H21.6477C20.3193 72.2727 19.2424 73.621 19.2424 75.2841V83.7159C19.2424 85.379 20.3193 86.7273 21.6477 86.7273H28.3826C29.711 86.7273 30.7879 85.379 30.7879 83.7159V75.2841C30.7879 73.621 29.711 72.2727 28.3826 72.2727Z" fill="#EBEDF0"/>
<path d="M28.3826 72.875H21.6478C20.585 72.875 19.7235 73.9536 19.7235 75.2841V83.7159C19.7235 85.0464 20.585 86.125 21.6478 86.125H28.3826C29.4453 86.125 30.3068 85.0464 30.3068 83.7159V75.2841C30.3068 73.9536 29.4453 72.875 28.3826 72.875Z" stroke="black" stroke-opacity="0.04"/>
<path d="M28.3826 96.3636H21.6477C20.3193 96.3636 19.2424 97.7119 19.2424 99.375V107.807C19.2424 109.47 20.3193 110.818 21.6477 110.818H28.3826C29.711 110.818 30.7879 109.47 30.7879 107.807V99.375C30.7879 97.7119 29.711 96.3636 28.3826 96.3636Z" fill="#EBEDF0"/>
<path d="M28.3826 96.9659H21.6478C20.585 96.9659 19.7235 98.0445 19.7235 99.375V107.807C19.7235 109.137 20.585 110.216 21.6478 110.216H28.3826C29.4453 110.216 30.3068 109.137 30.3068 107.807V99.375C30.3068 98.0445 29.4453 96.9659 28.3826 96.9659Z" stroke="black" stroke-opacity="0.04"/>
<path d="M28.3826 120.455H21.6477C20.3193 120.455 19.2424 121.803 19.2424 123.466V131.898C19.2424 133.561 20.3193 134.909 21.6477 134.909H28.3826C29.711 134.909 30.7879 133.561 30.7879 131.898V123.466C30.7879 121.803 29.711 120.455 28.3826 120.455Z" fill="#EBEDF0"/>
<path d="M28.3826 121.057H21.6478C20.585 121.057 19.7235 122.135 19.7235 123.466V131.898C19.7235 133.228 20.585 134.307 21.6478 134.307H28.3826C29.4453 134.307 30.3068 133.228 30.3068 131.898V123.466C30.3068 122.135 29.4453 121.057 28.3826 121.057Z" stroke="black" stroke-opacity="0.04"/>
<path d="M28.3826 144.545H21.6477C20.3193 144.545 19.2424 145.894 19.2424 147.557V155.989C19.2424 157.652 20.3193 159 21.6477 159H28.3826C29.711 159 30.7879 157.652 30.7879 155.989V147.557C30.7879 145.894 29.711 144.545 28.3826 144.545Z" fill="#9BE9A8"/>
<path d="M28.3826 145.148H21.6478C20.585 145.148 19.7235 146.226 19.7235 147.557V155.989C19.7235 157.319 20.585 158.398 21.6478 158.398H28.3826C29.4453 158.398 30.3068 157.319 30.3068 155.989V147.557C30.3068 146.226 29.4453 145.148 28.3826 145.148Z" stroke="black" stroke-opacity="0.04"/>
<path d="M47.625 0H40.8902C39.5618 0 38.4849 1.34823 38.4849 3.01136V11.4432C38.4849 13.1063 39.5618 14.4545 40.8902 14.4545H47.625C48.9534 14.4545 50.0303 13.1063 50.0303 11.4432V3.01136C50.0303 1.34823 48.9534 0 47.625 0Z" fill="#40C463"/>
<path d="M47.625 0.60228H40.8901C39.8274 0.60228 38.9659 1.68087 38.9659 3.01137V11.4432C38.9659 12.7737 39.8274 13.8523 40.8901 13.8523H47.625C48.6877 13.8523 49.5492 12.7737 49.5492 11.4432V3.01137C49.5492 1.68087 48.6877 0.60228 47.625 0.60228Z" stroke="black" stroke-opacity="0.04"/>
<path d="M47.625 24.0909H40.8902C39.5618 24.0909 38.4849 25.4391 38.4849 27.1023V35.5341C38.4849 37.1972 39.5618 38.5455 40.8902 38.5455H47.625C48.9534 38.5455 50.0303 37.1972 50.0303 35.5341V27.1023C50.0303 25.4391 48.9534 24.0909 47.625 24.0909Z" fill="#40C463"/>
<path d="M47.625 24.6932H40.8901C39.8274 24.6932 38.9659 25.7718 38.9659 27.1023V35.5341C38.9659 36.8646 39.8274 37.9432 40.8901 37.9432H47.625C48.6877 37.9432 49.5492 36.8646 49.5492 35.5341V27.1023C49.5492 25.7718 48.6877 24.6932 47.625 24.6932Z" stroke="black" stroke-opacity="0.04"/>
<path d="M47.625 48.1818H40.8902C39.5618 48.1818 38.4849 49.5301 38.4849 51.1932V59.625C38.4849 61.2881 39.5618 62.6364 40.8902 62.6364H47.625C48.9534 62.6364 50.0303 61.2881 50.0303 59.625V51.1932C50.0303 49.5301 48.9534 48.1818 47.625 48.1818Z" fill="#EBEDF0"/>
<path d="M47.625 48.7841H40.8901C39.8274 48.7841 38.9659 49.8627 38.9659 51.1932V59.625C38.9659 60.9555 39.8274 62.0341 40.8901 62.0341H47.625C48.6877 62.0341 49.5492 60.9555 49.5492 59.625V51.1932C49.5492 49.8627 48.6877 48.7841 47.625 48.7841Z" stroke="black" stroke-opacity="0.04"/>
<path d="M47.625 72.2727H40.8902C39.5618 72.2727 38.4849 73.621 38.4849 75.2841V83.7159C38.4849 85.379 39.5618 86.7273 40.8902 86.7273H47.625C48.9534 86.7273 50.0303 85.379 50.0303 83.7159V75.2841C50.0303 73.621 48.9534 72.2727 47.625 72.2727Z" fill="#EBEDF0"/>
<path d="M47.625 72.875H40.8901C39.8274 72.875 38.9659 73.9536 38.9659 75.2841V83.7159C38.9659 85.0464 39.8274 86.125 40.8901 86.125H47.625C48.6877 86.125 49.5492 85.0464 49.5492 83.7159V75.2841C49.5492 73.9536 48.6877 72.875 47.625 72.875Z" stroke="black" stroke-opacity="0.04"/>
<path d="M47.625 96.3636H40.8902C39.5618 96.3636 38.4849 97.7119 38.4849 99.375V107.807C38.4849 109.47 39.5618 110.818 40.8902 110.818H47.625C48.9534 110.818 50.0303 109.47 50.0303 107.807V99.375C50.0303 97.7119 48.9534 96.3636 47.625 96.3636Z" fill="#EBEDF0"/>
<path d="M47.625 96.9659H40.8901C39.8274 96.9659 38.9659 98.0445 38.9659 99.375V107.807C38.9659 109.137 39.8274 110.216 40.8901 110.216H47.625C48.6877 110.216 49.5492 109.137 49.5492 107.807V99.375C49.5492 98.0445 48.6877 96.9659 47.625 96.9659Z" stroke="black" stroke-opacity="0.04"/>
<path d="M47.625 120.455H40.8902C39.5618 120.455 38.4849 121.803 38.4849 123.466V131.898C38.4849 133.561 39.5618 134.909 40.8902 134.909H47.625C48.9534 134.909 50.0303 133.561 50.0303 131.898V123.466C50.0303 121.803 48.9534 120.455 47.625 120.455Z" fill="#EBEDF0"/>
<path d="M47.625 121.057H40.8901C39.8274 121.057 38.9659 122.135 38.9659 123.466V131.898C38.9659 133.228 39.8274 134.307 40.8901 134.307H47.625C48.6877 134.307 49.5492 133.228 49.5492 131.898V123.466C49.5492 122.135 48.6877 121.057 47.625 121.057Z" stroke="black" stroke-opacity="0.04"/>
<path d="M47.625 144.545H40.8902C39.5618 144.545 38.4849 145.894 38.4849 147.557V155.989C38.4849 157.652 39.5618 159 40.8902 159H47.625C48.9534 159 50.0303 157.652 50.0303 155.989V147.557C50.0303 145.894 48.9534 144.545 47.625 144.545Z" fill="#EBEDF0"/>
<path d="M47.625 145.148H40.8901C39.8274 145.148 38.9659 146.226 38.9659 147.557V155.989C38.9659 157.319 39.8274 158.398 40.8901 158.398H47.625C48.6877 158.398 49.5492 157.319 49.5492 155.989V147.557C49.5492 146.226 48.6877 145.148 47.625 145.148Z" stroke="black" stroke-opacity="0.04"/>
<path d="M66.8674 0H60.1326C58.8042 0 57.7273 1.34823 57.7273 3.01136V11.4432C57.7273 13.1063 58.8042 14.4545 60.1326 14.4545H66.8674C68.1959 14.4545 69.2727 13.1063 69.2727 11.4432V3.01136C69.2727 1.34823 68.1959 0 66.8674 0Z" fill="#EBEDF0"/>
<path d="M66.8674 0.60228H60.1326C59.0698 0.60228 58.2083 1.68087 58.2083 3.01137V11.4432C58.2083 12.7737 59.0698 13.8523 60.1326 13.8523H66.8674C67.9301 13.8523 68.7916 12.7737 68.7916 11.4432V3.01137C68.7916 1.68087 67.9301 0.60228 66.8674 0.60228Z" stroke="black" stroke-opacity="0.04"/>
<path d="M66.8674 24.0909H60.1326C58.8042 24.0909 57.7273 25.4391 57.7273 27.1023V35.5341C57.7273 37.1972 58.8042 38.5455 60.1326 38.5455H66.8674C68.1959 38.5455 69.2727 37.1972 69.2727 35.5341V27.1023C69.2727 25.4391 68.1959 24.0909 66.8674 24.0909Z" fill="#EBEDF0"/>
<path d="M66.8674 24.6932H60.1326C59.0698 24.6932 58.2083 25.7718 58.2083 27.1023V35.5341C58.2083 36.8646 59.0698 37.9432 60.1326 37.9432H66.8674C67.9301 37.9432 68.7916 36.8646 68.7916 35.5341V27.1023C68.7916 25.7718 67.9301 24.6932 66.8674 24.6932Z" stroke="black" stroke-opacity="0.04"/>
<path d="M66.8674 48.1818H60.1326C58.8042 48.1818 57.7273 49.5301 57.7273 51.1932V59.625C57.7273 61.2881 58.8042 62.6364 60.1326 62.6364H66.8674C68.1959 62.6364 69.2727 61.2881 69.2727 59.625V51.1932C69.2727 49.5301 68.1959 48.1818 66.8674 48.1818Z" fill="#EBEDF0"/>
<path d="M66.8674 48.7841H60.1326C59.0698 48.7841 58.2083 49.8627 58.2083 51.1932V59.625C58.2083 60.9555 59.0698 62.0341 60.1326 62.0341H66.8674C67.9301 62.0341 68.7916 60.9555 68.7916 59.625V51.1932C68.7916 49.8627 67.9301 48.7841 66.8674 48.7841Z" stroke="black" stroke-opacity="0.04"/>
<path d="M66.8674 72.2727H60.1326C58.8042 72.2727 57.7273 73.621 57.7273 75.2841V83.7159C57.7273 85.379 58.8042 86.7273 60.1326 86.7273H66.8674C68.1959 86.7273 69.2727 85.379 69.2727 83.7159V75.2841C69.2727 73.621 68.1959 72.2727 66.8674 72.2727Z" fill="#EBEDF0"/>
<path d="M66.8674 72.875H60.1326C59.0698 72.875 58.2083 73.9536 58.2083 75.2841V83.7159C58.2083 85.0464 59.0698 86.125 60.1326 86.125H66.8674C67.9301 86.125 68.7916 85.0464 68.7916 83.7159V75.2841C68.7916 73.9536 67.9301 72.875 66.8674 72.875Z" stroke="black" stroke-opacity="0.04"/>
<path d="M66.8674 96.3636H60.1326C58.8042 96.3636 57.7273 97.7119 57.7273 99.375V107.807C57.7273 109.47 58.8042 110.818 60.1326 110.818H66.8674C68.1959 110.818 69.2727 109.47 69.2727 107.807V99.375C69.2727 97.7119 68.1959 96.3636 66.8674 96.3636Z" fill="#EBEDF0"/>
<path d="M66.8674 96.9659H60.1326C59.0698 96.9659 58.2083 98.0445 58.2083 99.375V107.807C58.2083 109.137 59.0698 110.216 60.1326 110.216H66.8674C67.9301 110.216 68.7916 109.137 68.7916 107.807V99.375C68.7916 98.0445 67.9301 96.9659 66.8674 96.9659Z" stroke="black" stroke-opacity="0.04"/>
<path d="M66.8674 120.455H60.1326C58.8042 120.455 57.7273 121.803 57.7273 123.466V131.898C57.7273 133.561 58.8042 134.909 60.1326 134.909H66.8674C68.1959 134.909 69.2727 133.561 69.2727 131.898V123.466C69.2727 121.803 68.1959 120.455 66.8674 120.455Z" fill="#EBEDF0"/>
<path d="M66.8674 121.057H60.1326C59.0698 121.057 58.2083 122.135 58.2083 123.466V131.898C58.2083 133.228 59.0698 134.307 60.1326 134.307H66.8674C67.9301 134.307 68.7916 133.228 68.7916 131.898V123.466C68.7916 122.135 67.9301 121.057 66.8674 121.057Z" stroke="black" stroke-opacity="0.04"/>
<path d="M66.8674 144.545H60.1326C58.8042 144.545 57.7273 145.894 57.7273 147.557V155.989C57.7273 157.652 58.8042 159 60.1326 159H66.8674C68.1959 159 69.2727 157.652 69.2727 155.989V147.557C69.2727 145.894 68.1959 144.545 66.8674 144.545Z" fill="#30A14E"/>
<path d="M66.8674 145.148H60.1326C59.0698 145.148 58.2083 146.226 58.2083 147.557V155.989C58.2083 157.319 59.0698 158.398 60.1326 158.398H66.8674C67.9301 158.398 68.7916 157.319 68.7916 155.989V147.557C68.7916 146.226 67.9301 145.148 66.8674 145.148Z" stroke="black" stroke-opacity="0.04"/>
<path d="M86.1099 0H79.375C78.0466 0 76.9697 1.34823 76.9697 3.01136V11.4432C76.9697 13.1063 78.0466 14.4545 79.375 14.4545H86.1099C87.4383 14.4545 88.5152 13.1063 88.5152 11.4432V3.01136C88.5152 1.34823 87.4383 0 86.1099 0Z" fill="#9BE9A8"/>
<path d="M86.1098 0.60228H79.375C78.3123 0.60228 77.4507 1.68087 77.4507 3.01137V11.4432C77.4507 12.7737 78.3123 13.8523 79.375 13.8523H86.1098C87.1726 13.8523 88.0341 12.7737 88.0341 11.4432V3.01137C88.0341 1.68087 87.1726 0.60228 86.1098 0.60228Z" stroke="black" stroke-opacity="0.04"/>
<path d="M86.1099 24.0909H79.375C78.0466 24.0909 76.9697 25.4391 76.9697 27.1023V35.5341C76.9697 37.1972 78.0466 38.5455 79.375 38.5455H86.1099C87.4383 38.5455 88.5152 37.1972 88.5152 35.5341V27.1023C88.5152 25.4391 87.4383 24.0909 86.1099 24.0909Z" fill="#EBEDF0"/>
<path d="M86.1098 24.6932H79.375C78.3123 24.6932 77.4507 25.7718 77.4507 27.1023V35.5341C77.4507 36.8646 78.3123 37.9432 79.375 37.9432H86.1098C87.1726 37.9432 88.0341 36.8646 88.0341 35.5341V27.1023C88.0341 25.7718 87.1726 24.6932 86.1098 24.6932Z" stroke="black" stroke-opacity="0.04"/>
<path d="M86.1099 48.1818H79.375C78.0466 48.1818 76.9697 49.5301 76.9697 51.1932V59.625C76.9697 61.2881 78.0466 62.6364 79.375 62.6364H86.1099C87.4383 62.6364 88.5152 61.2881 88.5152 59.625V51.1932C88.5152 49.5301 87.4383 48.1818 86.1099 48.1818Z" fill="#40C463"/>
<path d="M86.1098 48.7841H79.375C78.3123 48.7841 77.4507 49.8627 77.4507 51.1932V59.625C77.4507 60.9555 78.3123 62.0341 79.375 62.0341H86.1098C87.1726 62.0341 88.0341 60.9555 88.0341 59.625V51.1932C88.0341 49.8627 87.1726 48.7841 86.1098 48.7841Z" stroke="black" stroke-opacity="0.04"/>
<path d="M86.1099 72.2727H79.375C78.0466 72.2727 76.9697 73.621 76.9697 75.2841V83.7159C76.9697 85.379 78.0466 86.7273 79.375 86.7273H86.1099C87.4383 86.7273 88.5152 85.379 88.5152 83.7159V75.2841C88.5152 73.621 87.4383 72.2727 86.1099 72.2727Z" fill="#EBEDF0"/>
<path d="M86.1098 72.875H79.375C78.3123 72.875 77.4507 73.9536 77.4507 75.2841V83.7159C77.4507 85.0464 78.3123 86.125 79.375 86.125H86.1098C87.1726 86.125 88.0341 85.0464 88.0341 83.7159V75.2841C88.0341 73.9536 87.1726 72.875 86.1098 72.875Z" stroke="black" stroke-opacity="0.04"/>
<path d="M86.1099 96.3636H79.375C78.0466 96.3636 76.9697 97.7119 76.9697 99.375V107.807C76.9697 109.47 78.0466 110.818 79.375 110.818H86.1099C87.4383 110.818 88.5152 109.47 88.5152 107.807V99.375C88.5152 97.7119 87.4383 96.3636 86.1099 96.3636Z" fill="#EBEDF0"/>
<path d="M86.1098 96.9659H79.375C78.3123 96.9659 77.4507 98.0445 77.4507 99.375V107.807C77.4507 109.137 78.3123 110.216 79.375 110.216H86.1098C87.1726 110.216 88.0341 109.137 88.0341 107.807V99.375C88.0341 98.0445 87.1726 96.9659 86.1098 96.9659Z" stroke="black" stroke-opacity="0.04"/>
<path d="M86.1099 120.455H79.375C78.0466 120.455 76.9697 121.803 76.9697 123.466V131.898C76.9697 133.561 78.0466 134.909 79.375 134.909H86.1099C87.4383 134.909 88.5152 133.561 88.5152 131.898V123.466C88.5152 121.803 87.4383 120.455 86.1099 120.455Z" fill="#EBEDF0"/>
<path d="M86.1098 121.057H79.375C78.3123 121.057 77.4507 122.135 77.4507 123.466V131.898C77.4507 133.228 78.3123 134.307 79.375 134.307H86.1098C87.1726 134.307 88.0341 133.228 88.0341 131.898V123.466C88.0341 122.135 87.1726 121.057 86.1098 121.057Z" stroke="black" stroke-opacity="0.04"/>
<path d="M86.1099 144.545H79.375C78.0466 144.545 76.9697 145.894 76.9697 147.557V155.989C76.9697 157.652 78.0466 159 79.375 159H86.1099C87.4383 159 88.5152 157.652 88.5152 155.989V147.557C88.5152 145.894 87.4383 144.545 86.1099 144.545Z" fill="#EBEDF0"/>
<path d="M86.1098 145.148H79.375C78.3123 145.148 77.4507 146.226 77.4507 147.557V155.989C77.4507 157.319 78.3123 158.398 79.375 158.398H86.1098C87.1726 158.398 88.0341 157.319 88.0341 155.989V147.557C88.0341 146.226 87.1726 145.148 86.1098 145.148Z" stroke="black" stroke-opacity="0.04"/>
<path d="M105.352 0H98.6174C97.289 0 96.2121 1.34823 96.2121 3.01136V11.4432C96.2121 13.1063 97.289 14.4545 98.6174 14.4545H105.352C106.681 14.4545 107.758 13.1063 107.758 11.4432V3.01136C107.758 1.34823 106.681 0 105.352 0Z" fill="#40C463"/>
<path d="M105.352 0.60228H98.6174C97.5547 0.60228 96.6932 1.68087 96.6932 3.01137V11.4432C96.6932 12.7737 97.5547 13.8523 98.6174 13.8523H105.352C106.415 13.8523 107.277 12.7737 107.277 11.4432V3.01137C107.277 1.68087 106.415 0.60228 105.352 0.60228Z" stroke="black" stroke-opacity="0.04"/>
<path d="M105.352 24.0909H98.6174C97.289 24.0909 96.2121 25.4391 96.2121 27.1023V35.5341C96.2121 37.1972 97.289 38.5455 98.6174 38.5455H105.352C106.681 38.5455 107.758 37.1972 107.758 35.5341V27.1023C107.758 25.4391 106.681 24.0909 105.352 24.0909Z" fill="#EBEDF0"/>
<path d="M105.352 24.6932H98.6174C97.5547 24.6932 96.6932 25.7718 96.6932 27.1023V35.5341C96.6932 36.8646 97.5547 37.9432 98.6174 37.9432H105.352C106.415 37.9432 107.277 36.8646 107.277 35.5341V27.1023C107.277 25.7718 106.415 24.6932 105.352 24.6932Z" stroke="black" stroke-opacity="0.04"/>
<path d="M105.352 48.1818H98.6174C97.289 48.1818 96.2121 49.5301 96.2121 51.1932V59.625C96.2121 61.2881 97.289 62.6364 98.6174 62.6364H105.352C106.681 62.6364 107.758 61.2881 107.758 59.625V51.1932C107.758 49.5301 106.681 48.1818 105.352 48.1818Z" fill="#40C463"/>
<path d="M105.352 48.7841H98.6174C97.5547 48.7841 96.6932 49.8627 96.6932 51.1932V59.625C96.6932 60.9555 97.5547 62.0341 98.6174 62.0341H105.352C106.415 62.0341 107.277 60.9555 107.277 59.625V51.1932C107.277 49.8627 106.415 48.7841 105.352 48.7841Z" stroke="black" stroke-opacity="0.04"/>
<path d="M105.352 72.2727H98.6174C97.289 72.2727 96.2121 73.621 96.2121 75.2841V83.7159C96.2121 85.379 97.289 86.7273 98.6174 86.7273H105.352C106.681 86.7273 107.758 85.379 107.758 83.7159V75.2841C107.758 73.621 106.681 72.2727 105.352 72.2727Z" fill="#EBEDF0"/>
<path d="M105.352 72.875H98.6174C97.5547 72.875 96.6932 73.9536 96.6932 75.2841V83.7159C96.6932 85.0464 97.5547 86.125 98.6174 86.125H105.352C106.415 86.125 107.277 85.0464 107.277 83.7159V75.2841C107.277 73.9536 106.415 72.875 105.352 72.875Z" stroke="black" stroke-opacity="0.04"/>
<path d="M105.352 96.3636H98.6174C97.289 96.3636 96.2121 97.7119 96.2121 99.375V107.807C96.2121 109.47 97.289 110.818 98.6174 110.818H105.352C106.681 110.818 107.758 109.47 107.758 107.807V99.375C107.758 97.7119 106.681 96.3636 105.352 96.3636Z" fill="#EBEDF0"/>
<path d="M105.352 96.9659H98.6174C97.5547 96.9659 96.6932 98.0445 96.6932 99.375V107.807C96.6932 109.137 97.5547 110.216 98.6174 110.216H105.352C106.415 110.216 107.277 109.137 107.277 107.807V99.375C107.277 98.0445 106.415 96.9659 105.352 96.9659Z" stroke="black" stroke-opacity="0.04"/>
<path d="M105.352 120.455H98.6174C97.289 120.455 96.2121 121.803 96.2121 123.466V131.898C96.2121 133.561 97.289 134.909 98.6174 134.909H105.352C106.681 134.909 107.758 133.561 107.758 131.898V123.466C107.758 121.803 106.681 120.455 105.352 120.455Z" fill="#EBEDF0"/>
<path d="M105.352 121.057H98.6174C97.5547 121.057 96.6932 122.135 96.6932 123.466V131.898C96.6932 133.228 97.5547 134.307 98.6174 134.307H105.352C106.415 134.307 107.277 133.228 107.277 131.898V123.466C107.277 122.135 106.415 121.057 105.352 121.057Z" stroke="black" stroke-opacity="0.04"/>
<path d="M105.352 144.545H98.6174C97.289 144.545 96.2121 145.894 96.2121 147.557V155.989C96.2121 157.652 97.289 159 98.6174 159H105.352C106.681 159 107.758 157.652 107.758 155.989V147.557C107.758 145.894 106.681 144.545 105.352 144.545Z" fill="#216E39"/>
<path d="M105.352 145.148H98.6174C97.5547 145.148 96.6932 146.226 96.6932 147.557V155.989C96.6932 157.319 97.5547 158.398 98.6174 158.398H105.352C106.415 158.398 107.277 157.319 107.277 155.989V147.557C107.277 146.226 106.415 145.148 105.352 145.148Z" stroke="black" stroke-opacity="0.04"/>
<path d="M124.595 0H117.86C116.531 0 115.455 1.34823 115.455 3.01136V11.4432C115.455 13.1063 116.531 14.4545 117.86 14.4545H124.595C125.923 14.4545 127 13.1063 127 11.4432V3.01136C127 1.34823 125.923 0 124.595 0Z" fill="#40C463"/>
<path d="M124.595 0.60228H117.86C116.797 0.60228 115.936 1.68087 115.936 3.01137V11.4432C115.936 12.7737 116.797 13.8523 117.86 13.8523H124.595C125.657 13.8523 126.519 12.7737 126.519 11.4432V3.01137C126.519 1.68087 125.657 0.60228 124.595 0.60228Z" stroke="black" stroke-opacity="0.04"/>
<path d="M124.595 24.0909H117.86C116.531 24.0909 115.455 25.4391 115.455 27.1023V35.5341C115.455 37.1972 116.531 38.5455 117.86 38.5455H124.595C125.923 38.5455 127 37.1972 127 35.5341V27.1023C127 25.4391 125.923 24.0909 124.595 24.0909Z" fill="#40C463"/>
<path d="M124.595 24.6932H117.86C116.797 24.6932 115.936 25.7718 115.936 27.1023V35.5341C115.936 36.8646 116.797 37.9432 117.86 37.9432H124.595C125.657 37.9432 126.519 36.8646 126.519 35.5341V27.1023C126.519 25.7718 125.657 24.6932 124.595 24.6932Z" stroke="black" stroke-opacity="0.04"/>
<path d="M124.595 48.1818H117.86C116.531 48.1818 115.455 49.5301 115.455 51.1932V59.625C115.455 61.2881 116.531 62.6364 117.86 62.6364H124.595C125.923 62.6364 127 61.2881 127 59.625V51.1932C127 49.5301 125.923 48.1818 124.595 48.1818Z" fill="#9BE9A8"/>
<path d="M124.595 48.7841H117.86C116.797 48.7841 115.936 49.8627 115.936 51.1932V59.625C115.936 60.9555 116.797 62.0341 117.86 62.0341H124.595C125.657 62.0341 126.519 60.9555 126.519 59.625V51.1932C126.519 49.8627 125.657 48.7841 124.595 48.7841Z" stroke="black" stroke-opacity="0.04"/>
<path d="M124.595 72.2727H117.86C116.531 72.2727 115.455 73.621 115.455 75.2841V83.7159C115.455 85.379 116.531 86.7273 117.86 86.7273H124.595C125.923 86.7273 127 85.379 127 83.7159V75.2841C127 73.621 125.923 72.2727 124.595 72.2727Z" fill="#EBEDF0"/>
<path d="M124.595 72.875H117.86C116.797 72.875 115.936 73.9536 115.936 75.2841V83.7159C115.936 85.0464 116.797 86.125 117.86 86.125H124.595C125.657 86.125 126.519 85.0464 126.519 83.7159V75.2841C126.519 73.9536 125.657 72.875 124.595 72.875Z" stroke="black" stroke-opacity="0.04"/>
<path d="M124.595 96.3636H117.86C116.531 96.3636 115.455 97.7119 115.455 99.375V107.807C115.455 109.47 116.531 110.818 117.86 110.818H124.595C125.923 110.818 127 109.47 127 107.807V99.375C127 97.7119 125.923 96.3636 124.595 96.3636Z" fill="#EBEDF0"/>
<path d="M124.595 96.9659H117.86C116.797 96.9659 115.936 98.0445 115.936 99.375V107.807C115.936 109.137 116.797 110.216 117.86 110.216H124.595C125.657 110.216 126.519 109.137 126.519 107.807V99.375C126.519 98.0445 125.657 96.9659 124.595 96.9659Z" stroke="black" stroke-opacity="0.04"/>
</g>
<defs>
<clipPath id="clip0_1_1730">
<rect width="127" height="159" fill="white"/>
</clipPath>
</defs>
</svg>
